<?xml version="1.0" encoding="UTF-8"?>
<svg id="Layer_1" data-name="Layer 1" xmlns="http://www.w3.org/2000/svg" version="1.1" viewBox="0 0 295 107.1">
  <defs>
    <style>
      .cls-1 {
        isolation: isolate;
      }

      .cls-2 {
        fill: #FFFFFF;
        stroke-width: 0px;
      }
    </style>
  </defs>
  <g>
    <path class="cls-2" d="M57.4,60.8c-.7-.4-1.5-.7-2.3-.7-2,0-3.7.7-4.6,2.6-.3.7-.6,1.4,0,2,.6.5,1.2.2,1.7-.2,1.4-1,2.8-1.5,4.5-1.3.7,0,1.3,0,1.4-.9,0-.7-.4-1.2-.9-1.5h0Z"/>
    <path class="cls-2" d="M104.6,50.2c-.9-1.9-2.2-3.5-3.8-4.9-2.9-2.5-3.9-5.5-4-9.3,0-11.6-8.1-21.9-19.3-25.2-6.9-2-13.9-2.3-20.8-.9-17.7,3.4-31.9,11.9-40,28.6-5.6,11.5-5.4,23.6-2.6,35.7,2.2,9.4,6.5,17.6,14.3,23.7,3.6,2.7,5.8,2,7.1-2.4,1.5-5.1.8-9.9-1.4-14.7-2.6-5.8-4.2-11.7-2.4-18,3.4-11.4,18.4-17.2,29.8-11.6,2.3,1.1,11.3,3.1,14.1,3.2,1.4,0,3,0,3.4,1.6.4,1.4-1.2,2-2.1,2.7-1.5,1-3.1,1.9-4.5,3-3.7,2.9-4.1,6.2-1.2,10,1.2,1.5,2.5,2.8,3.7,4.3,4,4.8,6.9,10.2,9.5,16,1.8-2,3-4,3.8-6.4,1.8-5.5,1.1-11-.4-16.4-1.4-5.1-3.7-9.9-5.8-14.7-1.1-2.4-1.4-5.1.8-7,2.2-1.8,4.6-.8,6.8.3.3.2.6.4.9.6,3.6,2.5,6.7,5.6,10.8,7.5,1.7.8,2.2.5,2.9-.7.9-1.6.9-3.2,0-4.9h.3ZM86.6,34.7c0,.6-.3,1.3-1,1.5s-.9-.5-1.1-1c-.6-1.5-1.7-2.5-3-3.3-.5-.3-1.2-.7-1-1.4,0-.3.2-.4.4-.5.3-.2.7-.2,1.2-.2,1,0,2,.6,2.8,1.4,0,.1.2.2.3.3.2.2.4.5.6.8.5.8.8,1.7.7,2.5h0Z"/>
  </g>
  <g class="cls-1">
    <g class="cls-1">
      <path class="cls-2" d="M124.8,30.5h.2v-6.2c0-.2,0-.3,0-.4,0-.1,0-.3.1-.4,0-.1.2-.2.3-.2.1,0,.3,0,.5,0s.5,0,.6,0,.3.1.3.2c0,.1.1.2.1.4,0,.1,0,.3,0,.4v7.5c0,.2,0,.4,0,.6,0,.2,0,.4-.1.5,0,.2-.2.3-.3.4s-.4.1-.6.1h-1c-.2,0-.4,0-.6-.1-.2,0-.3-.2-.4-.3-.1-.1-.2-.3-.2-.4s-.1-.3-.1-.4l-2.2-6.1h-.2v6.2c0,.2,0,.3,0,.4,0,.1,0,.3-.1.4,0,.1-.2.2-.3.2-.1,0-.3,0-.5,0s-.5,0-.6,0-.3-.1-.3-.2c0-.1-.1-.2-.1-.4,0-.1,0-.3,0-.4v-7.5c0-.2,0-.4,0-.6,0-.2,0-.4.1-.5,0-.2.2-.3.3-.4s.4-.1.6-.1h1c.2,0,.4,0,.6.1s.3.2.4.3c.1.1.2.3.3.5l2.4,6.4Z"/>
      <path class="cls-2" d="M133.2,23.2c.2,0,.4,0,.6,0,.2,0,.4,0,.5.1.2,0,.3.2.4.3s.2.3.2.6,0,.4-.2.6c-.1.1-.2.2-.4.3-.2,0-.3.1-.5.1-.2,0-.4,0-.6,0h-1.8v2h.9c.2,0,.4,0,.6,0,.2,0,.4,0,.5.1.2,0,.3.2.4.3,0,.1.1.3.1.6s0,.4-.1.6c0,.1-.2.2-.4.3-.2,0-.3.1-.5.1-.2,0-.4,0-.6,0h-.9v2.1h1.8c.2,0,.4,0,.6,0,.2,0,.4,0,.5.1.2,0,.3.2.4.3s.2.3.2.6,0,.5-.2.6c-.1.1-.2.2-.4.3-.2,0-.3.1-.5.1-.2,0-.4,0-.6,0h-2.9c-.3,0-.5,0-.6-.1s-.3-.2-.3-.4-.1-.3-.1-.5c0-.2,0-.4,0-.6v-7c0-.2,0-.4,0-.6,0-.2,0-.4.1-.5s.2-.3.3-.4.4-.1.6-.1h2.9Z"/>
      <path class="cls-2" d="M141.7,23.3c.1,0,.3,0,.4,0,.1,0,.2.1.3.2,0,0,.2.2.2.3s.1.3.1.4l1.3,5.9h.3c.2-1,.4-2,.6-3s.4-2,.7-3c0-.2.1-.4.2-.5,0-.1.2-.2.3-.4.1-.1.3-.2.6-.2s.3,0,.5,0c.1,0,.2.1.3.2s.2.2.2.3c0,.1,0,.2,0,.3s0,.1,0,.2,0,.1,0,.1c0,0,0,0,0,.1l-2,8.1c0,.2-.2.3-.3.4-.1.1-.2.2-.4.3-.2,0-.4.1-.6.1h-.3c-.2,0-.5,0-.6-.1-.2,0-.3-.2-.4-.3-.1-.1-.2-.3-.2-.4l-1-4.3h-.3c-.2.7-.3,1.4-.5,2.2-.2.7-.4,1.5-.5,2.2,0,.2-.2.3-.3.4,0,.1-.2.2-.4.3-.2,0-.4.1-.6.1h-.3c-.2,0-.5,0-.6-.1-.2,0-.3-.2-.4-.3-.1-.1-.2-.3-.3-.4l-2-8.1s0,0,0-.1c0,0,0,0,0-.1s0-.1,0-.2c0-.1,0-.2,0-.3,0-.1.1-.2.2-.3s.2-.2.3-.2c.1,0,.3,0,.5,0s.4,0,.6.2c.1.1.3.2.3.4,0,.2.2.3.2.5l1.3,5.9h.3c0-.5.2-.9.3-1.4s.2-1,.3-1.5.2-1,.3-1.5.2-1,.3-1.4c0-.3.2-.5.4-.7s.4-.3.7-.3Z"/>
      <path class="cls-2" d="M158.2,25.5h-.1c0-.1-2.1-.1-2.1-.1-.2,0-.4,0-.6,0-.2,0-.4,0-.5-.1-.2,0-.3-.2-.4-.3-.1-.1-.2-.3-.2-.5s0-.5.2-.6c.1-.2.2-.3.4-.3.2,0,.3-.1.5-.1.2,0,.4,0,.6,0h3.9c.2,0,.4,0,.5.1.1,0,.3.2.4.3,0,.1.2.2.2.4,0,.1,0,.3,0,.4s0,.1,0,.2,0,.1,0,.2l-3.8,6.6h.1c0,.1,2.1.1,2.1.1.2,0,.4,0,.6,0s.4,0,.5.1c.2,0,.3.2.4.3.1.1.2.3.2.6s0,.4-.2.6c-.1.1-.2.2-.4.3-.2,0-.3.1-.5.1-.2,0-.4,0-.6,0h-3.9c-.2,0-.4,0-.5,0s-.3-.1-.4-.2-.2-.2-.2-.3c0-.1,0-.3,0-.4s0-.2,0-.2c0,0,0-.1,0-.2l3.8-6.6Z"/>
      <path class="cls-2" d="M166.5,23.2c.2,0,.4,0,.6,0s.4,0,.5.1c.2,0,.3.2.4.3.1.1.2.3.2.6s0,.4-.2.6c-.1.1-.2.2-.4.3-.2,0-.3.1-.5.1-.2,0-.4,0-.6,0h-1.8v2h.9c.2,0,.4,0,.6,0,.2,0,.4,0,.5.1.2,0,.3.2.4.3,0,.1.1.3.1.6s0,.4-.1.6c0,.1-.2.2-.4.3-.2,0-.3.1-.5.1s-.4,0-.6,0h-.9v2.1h1.8c.2,0,.4,0,.6,0,.2,0,.4,0,.5.1.2,0,.3.2.4.3.1.1.2.3.2.6s0,.5-.2.6-.2.2-.4.3c-.2,0-.3.1-.5.1s-.4,0-.6,0h-2.9c-.3,0-.5,0-.6-.1-.2,0-.3-.2-.3-.4,0-.2-.1-.3-.1-.5,0-.2,0-.4,0-.6v-7c0-.2,0-.4,0-.6,0-.2,0-.4.1-.5,0-.2.2-.3.3-.4.2,0,.4-.1.6-.1h2.9Z"/>
      <path class="cls-2" d="M176.3,29.8c0,.3,0,.7,0,1,0,.4,0,.7,0,1v.2c0,.2,0,.4,0,.5s0,.3-.1.5-.2.3-.3.3-.3.1-.6.1-.5,0-.6-.1-.2-.2-.3-.3c0-.1-.1-.3-.1-.5,0-.2,0-.4,0-.5v-1h-3v1c0,.2,0,.4,0,.5,0,.2,0,.3-.1.5,0,.1-.2.2-.3.3s-.3.1-.6.1-.5,0-.6-.1-.2-.2-.3-.3-.1-.3-.1-.5,0-.4,0-.5v-.2c0-.2,0-.3,0-.5,0-.2,0-.3,0-.5,0-.2,0-.4,0-.5,0-.2,0-.3,0-.5.2-.9.5-1.7.8-2.6.3-.9.5-1.8.8-2.6,0-.2.1-.4.2-.5,0-.2.2-.3.3-.4.1-.1.3-.2.4-.3.2,0,.4-.1.7-.1h.7c.3,0,.5,0,.7.1.2,0,.3.2.4.3.1.1.2.3.3.4,0,.2.1.3.2.5l1.5,5.2ZM171.7,29.1h2.4l-1.1-4h-.2l-1.1,4Z"/>
      <path class="cls-2" d="M178.3,24.9c0-.2,0-.4,0-.6,0-.2,0-.4.1-.5,0-.2.2-.3.3-.4s.4-.1.6-.1.5,0,.7.1c.2,0,.3.2.3.4s.1.3.1.5c0,.2,0,.4,0,.6v6.5h1.5c.2,0,.4,0,.6,0s.4,0,.5.1c.2,0,.3.2.4.3s.1.3.1.6,0,.5-.1.6c0,.1-.2.3-.4.3-.2,0-.3.1-.5.1-.2,0-.4,0-.6,0h-2.1c-.3,0-.5,0-.7,0-.2,0-.4,0-.5-.1-.1,0-.2-.2-.3-.3,0-.1-.1-.3-.1-.6v-7.6Z"/>
      <path class="cls-2" d="M191.7,29.8c0,.3,0,.7,0,1s0,.7,0,1v.2c0,.2,0,.4,0,.5s0,.3-.1.5c0,.1-.2.3-.3.3s-.3.1-.6.1-.5,0-.6-.1c-.1,0-.2-.2-.3-.3s-.1-.3-.1-.5c0-.2,0-.4,0-.5v-1h-3v1c0,.2,0,.4,0,.5,0,.2,0,.3-.1.5,0,.1-.2.2-.3.3-.1,0-.3.1-.6.1s-.5,0-.6-.1c-.1,0-.2-.2-.3-.3s-.1-.3-.1-.5,0-.4,0-.5v-.2c0-.2,0-.3,0-.5,0-.2,0-.3,0-.5,0-.2,0-.4,0-.5,0-.2,0-.3,0-.5.2-.9.5-1.7.8-2.6.3-.9.5-1.8.8-2.6,0-.2.1-.4.2-.5,0-.2.2-.3.3-.4.1-.1.3-.2.4-.3.2,0,.4-.1.7-.1h.7c.3,0,.5,0,.7.1.2,0,.3.2.4.3.1.1.2.3.3.4,0,.2.1.3.2.5l1.5,5.2ZM187.1,29.1h2.4l-1.1-4h-.2l-1.1,4Z"/>
      <path class="cls-2" d="M199.1,30.5h.2v-6.2c0-.2,0-.3,0-.4,0-.1,0-.3.1-.4,0-.1.2-.2.3-.2s.3,0,.5,0,.5,0,.6,0c.1,0,.3.1.3.2,0,.1.1.2.1.4,0,.1,0,.3,0,.4v7.5c0,.2,0,.4,0,.6,0,.2,0,.4-.1.5,0,.2-.2.3-.3.4-.2,0-.4.1-.6.1h-1c-.2,0-.4,0-.6-.1-.2,0-.3-.2-.4-.3-.1-.1-.2-.3-.2-.4,0-.1-.1-.3-.1-.4l-2.2-6.1h-.2v6.2c0,.2,0,.3,0,.4,0,.1,0,.3-.1.4,0,.1-.2.2-.3.2s-.3,0-.5,0-.5,0-.6,0-.3-.1-.3-.2c0-.1-.1-.2-.1-.4,0-.1,0-.3,0-.4v-7.5c0-.2,0-.4,0-.6,0-.2,0-.4.1-.5,0-.2.2-.3.3-.4s.4-.1.6-.1h1c.2,0,.4,0,.6.1s.3.2.4.3c.1.1.2.3.3.5l2.4,6.4Z"/>
      <path class="cls-2" d="M206.7,23.2c.5,0,.9,0,1.3.2.4.1.7.3,1,.5.3.2.5.5.7.8.2.3.2.7.2,1.2v4.6c0,.4,0,.7-.1,1,0,.3-.2.5-.3.8-.1.2-.3.4-.5.5-.2.2-.3.3-.5.4-.4.2-.9.4-1.4.4h-2.5c-.3,0-.5,0-.7-.1-.2,0-.3-.2-.3-.4,0-.2-.1-.3-.1-.5,0-.2,0-.4,0-.6v-7c0-.2,0-.4,0-.6,0-.2,0-.4.1-.5,0-.2.2-.3.3-.4.2,0,.4-.1.7-.1h2.2ZM205.7,24.9v6.9h1c.2,0,.4,0,.6-.1,0,0,.1,0,.2-.1,0,0,.1-.1.2-.2,0,0,0-.2.1-.3,0-.1,0-.2,0-.4v-4.4c0-.2,0-.3,0-.4,0-.1,0-.2-.1-.3,0,0-.1-.2-.2-.2,0,0-.1-.1-.2-.2-.2,0-.4-.1-.6-.2h-1Z"/>
    </g>
  </g>
  <g class="cls-1">
    <path class="cls-2" d="M123.4,54.3v5.7c0,.5,0,1,0,1.5s-.1.9-.3,1.3-.4.7-.8.9-.9.3-1.6.3-1.2-.1-1.5-.3-.6-.5-.8-.9-.3-.8-.3-1.3,0-1,0-1.5v-16.6c0-.5,0-1,0-1.5s.1-.9.3-1.3.4-.7.8-.9.9-.3,1.5-.3h5.8c1.5,0,2.8.4,3.9.9.5.2,1,.5,1.4.9s.9.8,1.2,1.3.7,1.1.9,1.8.3,1.5.3,2.4-.2,2.4-.6,3.3-1,1.7-1.7,2.4-1.7,1.1-2.7,1.4-2.3.5-3.6.5h-2.2ZM125.8,50.1c.6,0,1.1-.2,1.6-.4.2-.1.4-.2.6-.4s.4-.4.5-.6.3-.5.4-.9.1-.7.1-1.1,0-.7-.1-1-.2-.6-.3-.8-.3-.4-.5-.6-.4-.3-.5-.4c-.4-.2-.9-.4-1.5-.4h-2.6v6.6h2.4Z"/>
    <path class="cls-2" d="M146.6,39.4c.5,0,.9,0,1.4,0,.5,0,.9.1,1.3.3s.7.4.9.7.4.8.4,1.4-.1,1.1-.4,1.4-.6.6-.9.7-.8.3-1.3.3c-.5,0-1,0-1.4,0h-4.2v4.8h2.2c.5,0,.9,0,1.4,0s.9.1,1.3.3.7.4.9.7c.2.3.4.8.4,1.3s-.1,1-.4,1.4c-.2.3-.5.6-.9.7s-.8.3-1.3.3-.9,0-1.4,0h-2.2v5.1h4.2c.5,0,.9,0,1.4,0,.5,0,.9.1,1.3.3s.7.4.9.7.4.8.4,1.4-.1,1.1-.4,1.4-.6.6-1,.8-.8.3-1.3.3c-.5,0-.9,0-1.4,0h-6.9c-.7,0-1.2-.1-1.5-.4s-.6-.5-.8-.9-.3-.8-.3-1.3,0-1,0-1.5v-16.5c0-.5,0-1,0-1.5s.1-.9.3-1.3.4-.7.8-.9.9-.4,1.5-.4h6.9Z"/>
    <path class="cls-2" d="M168.1,56.7h.4v-14.6c0-.4,0-.7,0-1.1s.1-.6.3-.9.4-.4.7-.6.7-.2,1.3-.2,1.1,0,1.4.2.6.3.8.6.3.5.3.9,0,.7,0,1.1v17.8c0,.5,0,1,0,1.5s-.1.9-.3,1.3-.4.7-.8.9-.9.3-1.5.3h-2.3c-.6,0-1-.1-1.4-.3s-.7-.5-.9-.8-.4-.6-.6-1-.3-.6-.3-.9l-5.3-14.4h-.4v14.6c0,.4,0,.7,0,1.1s-.1.6-.3.9-.4.4-.7.6-.7.2-1.3.2-1.1,0-1.4-.2-.6-.3-.8-.6-.3-.5-.3-.9,0-.7,0-1.1v-17.8c0-.5,0-1,0-1.5s.1-.9.3-1.3.4-.7.8-.9.9-.3,1.5-.3h2.3c.6,0,1.1.1,1.4.3s.7.5.9.7c.3.3.5.7.6,1.1l5.6,15.2Z"/>
    <path class="cls-2" d="M194.7,62.4c0,.2,0,.3,0,.5s-.1.4-.2.6-.3.3-.5.5-.6.2-.9.2-.8,0-1.1-.2-.5-.3-.6-.5-.2-.4-.3-.6,0-.4,0-.5v-1.1c-.6.8-1.3,1.5-2.2,2s-1.9.8-3.2.8-.6,0-1,0-1-.1-1.6-.3-1.2-.4-1.8-.7-1.2-.7-1.7-1.3-.9-1.2-1.3-2-.5-1.8-.5-3v-9.8c0-1,.1-1.8.4-2.5s.5-1.4.9-1.9.8-1,1.3-1.4,1-.7,1.5-.9c1.2-.6,2.6-.9,4.1-1,1.3,0,2.4.1,3.3.4s1.7.7,2.4,1.1,1.2,1,1.5,1.6.7,1.2.9,1.8.3,1.2.4,1.8,0,1,0,1.5,0,.4,0,.6-.1.5-.3.7-.5.4-.8.6-.9.2-1.6.2-.5,0-.9,0-.7-.1-1-.2-.6-.3-.8-.5-.4-.5-.4-.9c0-.6,0-1.2-.1-1.7s-.2-.9-.4-1.3-.5-.6-.8-.8-.8-.3-1.4-.3-1,.1-1.3.4-.5.5-.7.8-.3.7-.3,1.1v11.2c0,.4,0,.7.2,1.1s.3.6.6.9.5.4.9.6.7.2,1.1.2.9-.1,1.3-.3.7-.5,1-.8.6-.7.8-1.2.5-.9.6-1.4h-1.7c-.3,0-.6-.1-.9-.3-.2-.1-.4-.3-.6-.5s-.3-.6-.3-1,0-.8.3-1,.4-.4.6-.5.6-.2.9-.2h4.6c0,0,.2,0,.4,0s.4.1.6.3.4.3.5.6.2.7.2,1.2v7.5Z"/>
    <path class="cls-2" d="M198.7,43.4c0-.5,0-1,0-1.5s.2-.9.4-1.3.5-.7.9-.9.9-.3,1.6-.3,1.2.1,1.6.3.7.5.9.9.3.8.4,1.3,0,1,0,1.5v13.9c0,.5.1,1,.3,1.4,0,.2.2.3.3.5s.3.3.4.4.3.2.6.3.5.1.7.1.5,0,.8-.1.4-.2.6-.3.3-.3.4-.4.2-.3.3-.5c.2-.4.3-.9.3-1.4v-13.9c0-.5,0-1,0-1.5s.2-.9.4-1.3.5-.7.9-.9.9-.3,1.6-.3,1.2.1,1.6.3.7.5.9.9.3.8.4,1.3,0,1,0,1.5v13.4c0,1.2-.2,2.3-.6,3.2s-.9,1.7-1.7,2.3-1.6,1.1-2.6,1.4-2.1.5-3.3.5-2.3-.2-3.3-.5-1.9-.8-2.6-1.4-1.3-1.4-1.7-2.3-.6-2-.6-3.1v-13.4Z"/>
    <path class="cls-2" d="M220.4,43.4c0-.5,0-1,0-1.5s.2-.9.4-1.3.5-.7.9-.9.9-.4,1.6-.4,1.2.1,1.6.4.7.5.9.9.3.8.4,1.3,0,1,0,1.5v16.5c0,.5,0,1,0,1.5s-.2.9-.4,1.3-.5.7-.9.9-.9.3-1.6.3-1.2-.1-1.6-.3-.7-.5-.9-.9-.3-.8-.4-1.3,0-1,0-1.5v-16.5Z"/>
    <path class="cls-2" d="M245.2,56.7h.4v-14.6c0-.4,0-.7,0-1.1s.1-.6.3-.9.4-.4.7-.6.7-.2,1.3-.2,1.1,0,1.4.2.6.3.8.6.3.5.3.9,0,.7,0,1.1v17.8c0,.5,0,1,0,1.5s-.1.9-.3,1.3-.4.7-.8.9-.9.3-1.5.3h-2.3c-.6,0-1-.1-1.4-.3s-.7-.5-.9-.8-.4-.6-.6-1-.3-.6-.3-.9l-5.3-14.4h-.4v14.6c0,.4,0,.7,0,1.1s-.1.6-.3.9-.4.4-.7.6-.7.2-1.3.2-1.1,0-1.4-.2-.6-.3-.8-.6-.3-.5-.3-.9,0-.7,0-1.1v-17.8c0-.5,0-1,0-1.5s.1-.9.3-1.3.4-.7.8-.9.9-.3,1.5-.3h2.3c.6,0,1.1.1,1.4.3s.7.5.9.7c.3.3.5.7.6,1.1l5.6,15.2Z"/>
  </g>
  <g class="cls-1">
    <path class="cls-2" d="M118.6,72c0-.5,0-1,0-1.5s.2-.9.4-1.3.5-.7.9-.9.9-.4,1.6-.4,1.2.1,1.6.4.7.5.9.9.3.8.4,1.3,0,1,0,1.5v16.5c0,.5,0,1,0,1.5s-.2.9-.4,1.3-.5.7-.9.9-.9.3-1.6.3-1.2-.1-1.6-.3-.7-.5-.9-.9-.3-.8-.4-1.3,0-1,0-1.5v-16.5Z"/>
    <path class="cls-2" d="M143.4,85.3h.4v-14.6c0-.4,0-.7,0-1.1s.1-.6.3-.9.4-.4.7-.6.7-.2,1.3-.2,1.1,0,1.4.2.6.3.8.6.3.5.3.9,0,.7,0,1.1v17.8c0,.5,0,1,0,1.5s-.1.9-.3,1.3-.4.7-.8.9c-.4.2-.9.3-1.5.3h-2.3c-.6,0-1-.1-1.4-.3s-.7-.5-.9-.8-.4-.6-.6-1-.3-.6-.3-.9l-5.3-14.4h-.4v14.6c0,.4,0,.7,0,1.1s-.1.6-.3.9-.4.4-.7.6-.7.2-1.3.2-1.1,0-1.4-.2-.6-.3-.8-.6-.3-.5-.3-.9,0-.7,0-1.1v-17.8c0-.5,0-1,0-1.5s.1-.9.3-1.3.4-.7.8-.9.9-.3,1.5-.3h2.3c.6,0,1.1.1,1.4.3s.7.5.9.7c.3.3.5.7.6,1.1l5.6,15.2Z"/>
    <path class="cls-2" d="M154.2,72c0-.5,0-1,0-1.5s.2-.9.4-1.3.5-.7.9-.9.9-.4,1.6-.4,1.2.1,1.6.4.7.5.9.9.3.8.4,1.3,0,1,0,1.5v16.5c0,.5,0,1,0,1.5s-.2.9-.4,1.3-.5.7-.9.9-.9.3-1.6.3-1.2-.1-1.6-.3-.7-.5-.9-.9-.3-.8-.4-1.3,0-1,0-1.5v-16.5Z"/>
    <path class="cls-2" d="M176,68c.5,0,.9,0,1.4,0s.9.1,1.3.3.7.4.9.7.4.8.4,1.4-.1,1-.4,1.4-.6.6-.9.7-.8.3-1.3.3-.9,0-1.4,0h-1.8v15.6c0,.5,0,1,0,1.5s-.1.9-.3,1.3-.4.7-.8.9-.9.3-1.5.3-1.2-.1-1.5-.3-.6-.5-.8-.9-.3-.8-.3-1.3,0-1,0-1.5v-15.6h-1.8c-.5,0-.9,0-1.4,0s-.9-.1-1.3-.3-.7-.4-.9-.7-.4-.8-.4-1.4.1-1.1.4-1.4.6-.6.9-.7.8-.3,1.3-.3.9,0,1.4,0h8.9Z"/>
    <path class="cls-2" d="M183.1,72c0-.5,0-1,0-1.5s.2-.9.4-1.3.5-.7.9-.9.9-.4,1.6-.4,1.2.1,1.6.4.7.5.9.9.3.8.4,1.3,0,1,0,1.5v16.5c0,.5,0,1,0,1.5s-.2.9-.4,1.3-.5.7-.9.9-.9.3-1.6.3-1.2-.1-1.6-.3-.7-.5-.9-.9-.3-.8-.4-1.3,0-1,0-1.5v-16.5Z"/>
    <path class="cls-2" d="M209.9,83.7c0,.8,0,1.6,0,2.4s0,1.6,0,2.4v.5c0,.4,0,.9,0,1.3s-.1.8-.3,1.1-.4.6-.7.8-.8.3-1.4.3-1.1,0-1.4-.3-.6-.5-.7-.8-.3-.7-.3-1.1,0-.9,0-1.3v-2.5h-7v2.5c0,.4,0,.9,0,1.3s-.1.8-.3,1.1-.4.6-.7.8-.8.3-1.4.3-1.1,0-1.4-.3-.6-.5-.7-.8-.2-.7-.3-1.1,0-.8,0-1.3v-.5c0-.4,0-.8,0-1.2s0-.8,0-1.2,0-.8,0-1.3,0-.8,0-1.2c.6-2,1.2-4.1,1.8-6.2s1.3-4.2,1.8-6.2c.1-.4.3-.9.4-1.3s.4-.8.7-1.1.6-.5,1-.7,1-.3,1.6-.3h1.8c.6,0,1.2,0,1.6.3s.8.4,1,.7.5.7.6,1.1.3.8.4,1.3l3.7,12.4ZM198.8,82h5.6l-2.6-9.4h-.4l-2.6,9.4Z"/>
    <path class="cls-2" d="M224.4,68c.5,0,.9,0,1.4,0s.9.1,1.3.3.7.4.9.7.4.8.4,1.4-.1,1-.4,1.4-.6.6-.9.7-.8.3-1.3.3-.9,0-1.4,0h-1.8v15.6c0,.5,0,1,0,1.5s-.1.9-.3,1.3-.4.7-.8.9-.9.3-1.5.3-1.2-.1-1.5-.3-.6-.5-.8-.9-.3-.8-.3-1.3,0-1,0-1.5v-15.6h-1.8c-.5,0-.9,0-1.4,0s-.9-.1-1.3-.3-.7-.4-.9-.7-.4-.8-.4-1.4.1-1.1.4-1.4.6-.6.9-.7.8-.3,1.3-.3.9,0,1.4,0h8.9Z"/>
    <path class="cls-2" d="M231.5,72c0-.5,0-1,0-1.5s.2-.9.4-1.3.5-.7.9-.9.9-.4,1.6-.4,1.2.1,1.6.4.7.5.9.9.3.8.4,1.3,0,1,0,1.5v16.5c0,.5,0,1,0,1.5s-.2.9-.4,1.3-.5.7-.9.9-.9.3-1.6.3-1.2-.1-1.6-.3-.7-.5-.9-.9-.3-.8-.4-1.3,0-1,0-1.5v-16.5Z"/>
    <path class="cls-2" d="M255.1,68c.3,0,.7,0,1,.2s.6.3.8.5.4.4.6.7.2.6.2.9,0,.3,0,.4,0,.3,0,.4c0,.1,0,.2,0,.3-.8,3.1-1.6,6.3-2.5,9.6s-1.7,6.4-2.5,9.6c-.2.4-.4.8-.7,1.1-.2.3-.6.5-1,.7s-.9.3-1.5.3h-.6c-.6,0-1.1-.1-1.5-.3s-.7-.5-1-.7c-.3-.3-.5-.7-.7-1.1l-5-19.1c0,0,0-.2,0-.3,0-.2,0-.5,0-.8s0-.6.2-.9.3-.5.6-.7.5-.4.8-.5.7-.2,1-.2c.6,0,1,.1,1.4.4s.6.5.8.8c.2.4.4.8.5,1.2.1.6.3,1.2.5,1.9s.3,1.4.5,2.2.3,1.5.5,2.3.3,1.6.5,2.3c.4,1.7.7,3.5,1.1,5.3h.6c.4-1.8.8-3.6,1.2-5.3.2-.7.3-1.5.5-2.3s.3-1.6.5-2.3.3-1.5.5-2.2.3-1.3.4-1.9c.1-.4.3-.8.5-1.2.2-.3.5-.6.8-.8s.8-.4,1.4-.4Z"/>
    <path class="cls-2" d="M269.8,68c.5,0,.9,0,1.4,0s.9.1,1.3.3.7.4.9.7.4.8.4,1.4-.1,1.1-.4,1.4-.6.6-.9.7-.8.3-1.3.3-1,0-1.4,0h-4.2v4.8h2.2c.5,0,.9,0,1.4,0s.9.1,1.3.3.7.4.9.7.4.8.4,1.3-.1,1-.4,1.4-.5.6-.9.7-.8.3-1.3.3-.9,0-1.4,0h-2.2v5.1h4.2c.5,0,.9,0,1.4,0s.9.1,1.3.3.7.4.9.7.4.8.4,1.4-.1,1.1-.4,1.4-.6.6-1,.8-.8.3-1.3.3-.9,0-1.4,0h-6.9c-.7,0-1.2-.1-1.5-.4s-.6-.5-.8-.9-.3-.8-.3-1.3,0-1,0-1.5v-16.5c0-.5,0-1,0-1.5s.1-.9.3-1.3.4-.7.8-.9.9-.4,1.5-.4h6.9Z"/>
  </g>
</svg>